<svg width="663" height="487" viewBox="0 0 663 487" fill="none" xmlns="http://www.w3.org/2000/svg">
<g filter="url(#filter0_d)">
<path fill-rule="evenodd" clip-rule="evenodd" d="M339.884 58.4235C391.302 56.1055 425.842 94.1148 468.772 114.632C513.21 135.869 575.658 144.128 595.373 180.526C615.206 217.14 591.937 259.755 566.428 294.926C544.22 325.547 500.902 341.453 463.426 362.456C426.373 383.221 394.211 409.519 348.986 416.789C297.895 425.002 243.635 422.641 197.52 405.2C147.581 386.312 106.992 355.2 85.0605 316.97C62.152 277.038 46.5774 228.673 73.89 189.699C100.425 151.835 170.974 149.579 218.966 125.893C262.003 104.653 288.572 60.7367 339.884 58.4235Z" fill="url(#paint0_linear)"/>
</g>
<circle cx="530.699" cy="230.182" r="11.334" transform="rotate(81.5534 530.699 230.182)" fill="#2B81C7"/>
<circle cx="459.758" cy="43.6569" r="8.50053" transform="rotate(81.5534 459.758 43.6569)" fill="#EB5757"/>
<circle cx="163.444" cy="207.065" r="5.66702" transform="rotate(81.5534 163.444 207.065)" fill="#27AE60"/>
<path fill-rule="evenodd" clip-rule="evenodd" d="M481.121 144.182L298.674 63.8998C283.442 57.1975 265.439 64.6168 258.463 80.4713L185.586 246.089C178.61 261.944 185.302 280.23 200.533 286.932L382.98 367.214C398.212 373.916 416.215 366.497 423.192 350.642L496.068 185.024C503.045 169.17 496.352 150.884 481.121 144.182ZM300.617 59.4833C283.042 51.7498 262.269 60.3106 254.22 78.6043L181.343 244.222C173.293 262.516 181.015 283.615 198.59 291.349L381.037 371.63C398.612 379.364 419.385 370.803 427.435 352.509L500.311 186.891C508.361 168.598 500.639 147.498 483.064 139.765L300.617 59.4833Z" fill="#BFCFDD"/>
<g filter="url(#filter1_d)">
<path d="M239.736 82.3381C245.357 63.1583 265.461 52.1663 284.641 57.7869L483.749 116.135C502.929 121.755 513.921 141.86 508.3 161.04L457.416 334.68C451.795 353.86 431.691 364.852 412.511 359.232L213.403 300.884C194.223 295.263 183.231 275.159 188.852 255.979L239.736 82.3381Z" fill="white"/>
</g>
<path fill-rule="evenodd" clip-rule="evenodd" d="M482.392 120.765L283.284 62.4173C266.662 57.5462 249.238 67.0725 244.367 83.6951L193.482 257.336C188.611 273.958 198.137 291.382 214.76 296.254L413.868 354.601C430.49 359.472 447.914 349.946 452.785 333.323L503.67 159.683C508.541 143.06 499.015 125.636 482.392 120.765ZM284.641 57.7869C265.461 52.1663 245.357 63.1583 239.736 82.3381L188.852 255.979C183.231 275.159 194.223 295.263 213.403 300.884L412.511 359.232C431.691 364.852 451.795 353.86 457.416 334.68L508.3 161.04C513.921 141.86 502.929 121.755 483.749 116.135L284.641 57.7869Z" fill="#C5D2DE"/>
<path d="M239.736 82.3381C245.357 63.1583 265.461 52.1663 284.641 57.7869L483.749 116.135C502.929 121.755 513.921 141.86 508.3 161.04L497.784 196.925L229.22 118.224L239.736 82.3381Z" fill="#8DB6D8"/>
<path fill-rule="evenodd" clip-rule="evenodd" d="M482.392 120.765L283.284 62.4173C266.662 57.5462 249.238 67.0725 244.367 83.6951L235.207 114.95L494.511 190.938L503.67 159.683C508.541 143.06 499.015 125.636 482.392 120.765ZM284.641 57.7869C265.461 52.1663 245.357 63.1583 239.736 82.3381L229.22 118.224L497.784 196.925L508.3 161.04C513.921 141.86 502.929 121.755 483.749 116.135L284.641 57.7869Z" fill="#2B81C7"/>
<path d="M330.028 108.797C328.529 113.911 323.167 116.843 318.053 115.344C312.938 113.845 310.007 108.484 311.506 103.369C313.005 98.2545 318.366 95.3233 323.481 96.8221C328.595 98.3209 331.526 103.682 330.028 108.797Z" fill="white"/>
<path fill-rule="evenodd" clip-rule="evenodd" d="M319.071 111.871C322.267 112.808 325.618 110.976 326.555 107.779C327.491 104.582 325.659 101.232 322.463 100.295C319.266 99.3582 315.915 101.19 314.979 104.387C314.042 107.583 315.874 110.934 319.071 111.871ZM318.053 115.344C323.167 116.843 328.529 113.911 330.028 108.797C331.526 103.682 328.595 98.3209 323.481 96.8221C318.366 95.3233 313.005 98.2545 311.506 103.369C310.007 108.484 312.938 113.845 318.053 115.344Z" fill="#0C64AE"/>
<path d="M436.526 140.006C435.027 145.121 429.666 148.052 424.552 146.553C419.437 145.054 416.506 139.693 418.005 134.578C419.503 129.464 424.865 126.532 429.979 128.031C435.094 129.53 438.025 134.891 436.526 140.006Z" fill="white"/>
<path fill-rule="evenodd" clip-rule="evenodd" d="M425.569 143.08C428.766 144.017 432.117 142.185 433.053 138.988C433.99 135.792 432.158 132.441 428.962 131.504C425.765 130.567 422.414 132.399 421.477 135.596C420.541 138.793 422.373 142.143 425.569 143.08ZM424.552 146.553C429.666 148.052 435.027 145.121 436.526 140.006C438.025 134.891 435.094 129.53 429.979 128.031C424.865 126.532 419.503 129.464 418.005 134.578C416.506 139.693 419.437 145.054 424.552 146.553Z" fill="#0C64AE"/>
<path fill-rule="evenodd" clip-rule="evenodd" d="M481.121 144.182L298.674 63.8998C283.442 57.1975 265.439 64.6168 258.463 80.4713L185.586 246.089C178.61 261.944 185.302 280.23 200.533 286.932L382.98 367.214C398.212 373.916 416.215 366.497 423.192 350.642L496.068 185.024C503.045 169.17 496.352 150.884 481.121 144.182ZM300.617 59.4833C283.042 51.7498 262.269 60.3106 254.22 78.6043L181.343 244.222C173.293 262.516 181.015 283.615 198.59 291.349L381.037 371.63C398.612 379.364 419.385 370.803 427.435 352.509L500.311 186.891C508.361 168.598 500.639 147.498 483.064 139.765L300.617 59.4833Z" fill="#BFCFDD"/>
<g filter="url(#filter2_d)">
<path d="M239.736 82.3381C245.357 63.1583 265.461 52.1663 284.641 57.7869L483.749 116.135C502.929 121.755 513.921 141.86 508.3 161.04L457.416 334.68C451.795 353.86 431.691 364.852 412.511 359.232L213.403 300.884C194.223 295.263 183.231 275.159 188.852 255.979L239.736 82.3381Z" fill="white"/>
</g>
<path fill-rule="evenodd" clip-rule="evenodd" d="M482.392 120.765L283.284 62.4173C266.662 57.5462 249.238 67.0725 244.367 83.6951L193.482 257.336C188.611 273.958 198.137 291.382 214.76 296.254L413.868 354.601C430.49 359.472 447.914 349.946 452.785 333.323L503.67 159.683C508.541 143.06 499.015 125.636 482.392 120.765ZM284.641 57.7869C265.461 52.1663 245.357 63.1583 239.736 82.3381L188.852 255.979C183.231 275.159 194.223 295.263 213.403 300.884L412.511 359.232C431.691 364.852 451.795 353.86 457.416 334.68L508.3 161.04C513.921 141.86 502.929 121.755 483.749 116.135L284.641 57.7869Z" fill="#C5D2DE"/>
<path d="M239.736 82.3381C245.357 63.1583 265.461 52.1663 284.641 57.7869L483.749 116.135C502.929 121.755 513.921 141.86 508.3 161.04L497.784 196.925L229.22 118.224L239.736 82.3381Z" fill="#8DB6D8"/>
<path fill-rule="evenodd" clip-rule="evenodd" d="M482.392 120.765L283.284 62.4173C266.662 57.5462 249.238 67.0725 244.367 83.6951L235.207 114.95L494.511 190.938L503.67 159.683C508.541 143.06 499.015 125.636 482.392 120.765ZM284.641 57.7869C265.461 52.1663 245.357 63.1583 239.736 82.3381L229.22 118.224L497.784 196.925L508.3 161.04C513.921 141.86 502.929 121.755 483.749 116.135L284.641 57.7869Z" fill="#2B81C7"/>
<path d="M330.028 108.797C328.529 113.911 323.167 116.843 318.053 115.344C312.938 113.845 310.007 108.484 311.506 103.369C313.005 98.2545 318.366 95.3233 323.481 96.8221C328.595 98.3209 331.526 103.682 330.028 108.797Z" fill="white"/>
<path fill-rule="evenodd" clip-rule="evenodd" d="M319.071 111.871C322.267 112.808 325.618 110.976 326.555 107.779C327.491 104.582 325.659 101.232 322.463 100.295C319.266 99.3582 315.915 101.19 314.979 104.387C314.042 107.583 315.874 110.934 319.071 111.871ZM318.053 115.344C323.167 116.843 328.529 113.911 330.028 108.797C331.526 103.682 328.595 98.3209 323.481 96.8221C318.366 95.3233 313.005 98.2545 311.506 103.369C310.007 108.484 312.938 113.845 318.053 115.344Z" fill="#0C64AE"/>
<path d="M436.526 140.006C435.027 145.121 429.666 148.052 424.552 146.553C419.437 145.054 416.506 139.693 418.005 134.578C419.503 129.464 424.865 126.532 429.979 128.031C435.094 129.53 438.025 134.891 436.526 140.006Z" fill="white"/>
<path fill-rule="evenodd" clip-rule="evenodd" d="M425.569 143.08C428.766 144.017 432.117 142.185 433.053 138.988C433.99 135.792 432.158 132.441 428.962 131.504C425.765 130.567 422.414 132.399 421.477 135.596C420.541 138.793 422.373 142.143 425.569 143.08ZM424.552 146.553C429.666 148.052 435.027 145.121 436.526 140.006C438.025 134.891 435.094 129.53 429.979 128.031C424.865 126.532 419.503 129.464 418.005 134.578C416.506 139.693 419.437 145.054 424.552 146.553Z" fill="#0C64AE"/>
<defs>
<filter id="filter0_d" x="0" y="0.827759" width="663" height="485.43" filterUnits="userSpaceOnUse" color-interpolation-filters="sRGB">
<feFlood flood-opacity="0" result="BackgroundImageFix"/>
<feColorMatrix in="SourceAlpha" type="matrix" values="0 0 0 0 0 0 0 0 0 0 0 0 0 0 0 0 0 0 127 0" result="hardAlpha"/>
<feOffset dy="4"/>
<feGaussianBlur stdDeviation="27.5"/>
<feColorMatrix type="matrix" values="0 0 0 0 0.337255 0 0 0 0 0.8 0 0 0 0 0.94902 0 0 0 0.1 0"/>
<feBlend mode="normal" in2="BackgroundImageFix" result="effect1_dropShadow"/>
<feBlend mode="normal" in="SourceGraphic" in2="effect1_dropShadow" result="shape"/>
</filter>
<filter id="filter1_d" x="158.675" y="32.61" width="389.803" height="371.799" filterUnits="userSpaceOnUse" color-interpolation-filters="sRGB">
<feFlood flood-opacity="0" result="BackgroundImageFix"/>
<feColorMatrix in="SourceAlpha" type="matrix" values="0 0 0 0 0 0 0 0 0 0 0 0 0 0 0 0 0 0 127 0" result="hardAlpha"/>
<feOffset dx="5" dy="10"/>
<feGaussianBlur stdDeviation="12.5"/>
<feColorMatrix type="matrix" values="0 0 0 0 0.552941 0 0 0 0 0.713726 0 0 0 0 0.847059 0 0 0 0.4 0"/>
<feBlend mode="normal" in2="BackgroundImageFix" result="effect1_dropShadow"/>
<feBlend mode="normal" in="SourceGraphic" in2="effect1_dropShadow" result="shape"/>
</filter>
<filter id="filter2_d" x="158.675" y="32.61" width="389.803" height="371.799" filterUnits="userSpaceOnUse" color-interpolation-filters="sRGB">
<feFlood flood-opacity="0" result="BackgroundImageFix"/>
<feColorMatrix in="SourceAlpha" type="matrix" values="0 0 0 0 0 0 0 0 0 0 0 0 0 0 0 0 0 0 127 0" result="hardAlpha"/>
<feOffset dx="5" dy="10"/>
<feGaussianBlur stdDeviation="12.5"/>
<feColorMatrix type="matrix" values="0 0 0 0 0.552941 0 0 0 0 0.713726 0 0 0 0 0.847059 0 0 0 0.4 0"/>
<feBlend mode="normal" in2="BackgroundImageFix" result="effect1_dropShadow"/>
<feBlend mode="normal" in="SourceGraphic" in2="effect1_dropShadow" result="shape"/>
</filter>
<linearGradient id="paint0_linear" x1="520.1" y1="394.327" x2="-135.365" y2="-183.197" gradientUnits="userSpaceOnUse">
<stop stop-color="#F4F4F4" stop-opacity="0.4"/>
<stop offset="1" stop-color="#F3F6F7"/>
</linearGradient>
</defs>
</svg>
